<?xml version="1.0" encoding="UTF-8"?>
<svg id="Layer_1" xmlns="http://www.w3.org/2000/svg" version="1.1" viewBox="0 0 80 48">
  <!-- Generator: Adobe Illustrator 29.4.0, SVG Export Plug-In . SVG Version: 2.1.0 Build 152)  -->
  <defs>
    <style>
      .st0 {
        fill-rule: evenodd;
      }
    </style>
  </defs>
  <path class="st0" d="M14.67,14.1c1.31.48,2.34,1.49,2.86,2.78l5.61,14.78s0,.07-.04.08h-.02s-2.6,0-2.6,0c-.03,0-.05-.02-.06-.04l-5.26-13.86c-.24-.63-.75-1.14-1.39-1.37-1.21-.45-2.56.14-3.04,1.32l-1.27,3.34c-1.22.61-2.06,1.86-2.06,3.3,0,.49.1.96.27,1.39l-2.23,5.88s-.03.04-.06.04h-2.6s-.06-.03-.06-.06v-.02s5.58-14.7,5.58-14.7c.96-2.52,3.8-3.8,6.35-2.85ZM29.75,17.27h.3s.37,0,.37,0l.29.02.32.04.22.04.32.07.23.06.14.04.26.08.22.07.1.04.27.11.2.09.22.1.23.12.11.06.22.13.21.13.09.06.24.17.19.15.17.14.11.1.17.16.1.1.11.11.11.12.11.12.1.11.17.21.22.3.08.12.14.21.09.15.15.27.11.21.12.25.09.22.08.22.07.2.06.19.05.17.03.12c.02.09.04.18.06.27l.03.16.03.16.03.16c.01.09.03.19.04.29v.14c.02.12.03.25.04.38v.14s0,10.7,0,10.7c0,.1-.08.18-.18.18h-2.18c-.09,0-.17-.07-.18-.16v-.02s0-5.14,0-5.14l-.23.18-.19.14-.15.1-.13.09-.16.1-.2.12-.27.15-.12.06-.22.1-.29.12-.24.09-.13.05-.31.1-.11.03-.27.07-.26.06-.23.04-.13.02-.25.03h-.12s-.18.03-.18.03h-.22s-.24.01-.24.01c-3.97,0-7.19-3.21-7.19-7.16s3.09-7.04,6.96-7.16ZM25.34,24.43c0-2.55,2.08-4.62,4.64-4.62.15,0,.3,0,.45.02h.11s.22.04.22.04l.11.02.13.03.21.05.22.07.23.08c.1.04.2.08.29.12l.07.03.23.12.18.11c.07.04.13.08.2.13l.11.08.11.08c.16.12.3.25.44.4l.15.16c.69.76,1.12,1.76,1.18,2.85v.06s0,.24,0,.24c-.03,2.32-1.78,4.23-4.04,4.52l-.14.02h-.19s-.27.02-.27.02c-2.56,0-4.64-2.07-4.64-4.62ZM11.27,22.11c1.37,0,2.48,1.1,2.48,2.45s-1.11,2.45-2.48,2.45-2.48-1.1-2.48-2.45,1.11-2.45,2.48-2.45ZM49.73,18.17l-.12-.07-.32-.16-.25-.11-.32-.13c-.16-.06-.33-.11-.49-.16l-.12-.03c-.24-.07-.49-.12-.74-.16h-.07s-.34-.05-.34-.05l-.18-.02c-.18-.01-.36-.02-.54-.02-3.97,0-7.19,3.2-7.19,7.15s3.22,7.15,7.19,7.15h.23s.34-.02.34-.02l.36-.04.28-.04.29-.05.28-.07.27-.07.33-.11.24-.09.27-.11.28-.13.23-.12.24-.13.29-.18.27-.18c.14-.1.28-.21.42-.32l.03-.02v1.71c.01.09.09.16.18.16h2.18c.1,0,.18-.08.18-.18v-7.6s-.04-.26-.04-.26l-.04-.3-.04-.25-.06-.3-.05-.21-.09-.33-.05-.16-.08-.24-.16-.39-.12-.25-.17-.32-.14-.24-.08-.13-.14-.21-.1-.15-.19-.25-.11-.13-.21-.24-.16-.16-.19-.19-.12-.11-.15-.13-.35-.28-.23-.17-.28-.19-.33-.2ZM46.23,19.8c-2.56,0-4.64,2.07-4.64,4.61s2.08,4.61,4.64,4.61h.28s.16-.02.16-.02l.26-.03h.05c.13-.03.26-.06.39-.09l.23-.06.24-.08.09-.04.13-.05.23-.11.22-.11.17-.1.16-.1.18-.13c1.11-.83,1.84-2.16,1.85-3.65v-.3c-.04-.65-.22-1.27-.5-1.83l-.13-.23-.14-.23-.06-.09-.11-.16-.1-.13-.12-.14-.09-.1-.13-.13-.2-.18-.2-.17-.16-.12-.17-.11-.23-.14-.11-.06-.23-.11-.18-.08-.21-.08-.18-.06-.17-.05-.19-.05-.2-.04-.2-.03h-.12c-.16-.03-.33-.04-.5-.04ZM74.96,19.17l-.09-.09-.22-.18-.13-.11-.22-.17-.23-.16-.28-.18-.25-.14-.14-.08-.18-.09-.24-.11-.2-.08-.16-.06-.32-.11-.26-.08-.14-.04-.23-.06-.32-.07-.22-.04-.13-.02-.19-.02-.22-.02h-.26s-.18-.02-.18-.02h-.3c-3.86.12-6.96,3.27-6.96,7.14s3.22,7.15,7.19,7.15h.24s.22-.01.22-.01h.18s.22-.04.22-.04l.14-.02.13-.02.23-.04.15-.03.11-.02.15-.04.23-.06.21-.06.23-.08.24-.09.2-.08.31-.14.12-.06.27-.15.27-.17.21-.14.15-.1.19-.14.23-.18v1.71c.01.09.09.16.18.16h2.18c.1,0,.18-.08.18-.18v-7.38c0-.13-.02-.25-.03-.37v-.14s-.05-.28-.05-.28c-.02-.11-.03-.21-.05-.32l-.03-.16-.06-.27-.03-.12-.08-.27-.05-.16-.09-.24-.04-.1-.09-.22-.12-.25-.11-.21-.08-.14-.16-.27-.06-.09-.16-.24-.14-.19-.16-.21-.1-.12-.1-.11-.22-.24-.11-.11-.18-.18ZM70.08,19.8c-2.56,0-4.64,2.07-4.64,4.61s2.08,4.61,4.64,4.61h.27s.19-.02.19-.02l.14-.02c2.26-.29,4.01-2.19,4.04-4.51v-.15s0-.15,0-.15c-.06-1.09-.49-2.08-1.18-2.84l-.08-.09-.07-.07c-.14-.14-.29-.27-.44-.39l-.11-.08-.11-.08c-.06-.04-.13-.09-.2-.13l-.18-.11-.23-.12-.07-.03c-.1-.04-.19-.09-.29-.12l-.13-.05-.25-.08-.15-.04-.25-.06-.11-.02-.11-.02-.22-.03c-.15-.01-.3-.02-.45-.02ZM62.64,20.03v-2.52h-.12c-3.97.06-7.16,3.23-7.16,7.13v7.03s.03.06.06.06h2.44s.06-.03.06-.06v-7.1c.04-2.51,2.14-4.54,4.71-4.54Z"/>
</svg>