<svg width="80" height="48" viewBox="0 0 80 48" fill="none" xmlns="http://www.w3.org/2000/svg">
<path fill-rule="evenodd" clip-rule="evenodd" d="M12.81 13.3345C14.2136 13.8547 15.327 14.9378 15.876 16.3132L21.8966 32.1746C21.9098 32.2094 21.8923 32.2483 21.8575 32.2615L21.8336 32.2659H19.0457C19.0177 32.2659 18.9927 32.2486 18.9827 32.2224L13.3378 17.3486C13.0793 16.6674 12.5353 16.13 11.846 15.8745C10.5471 15.3932 9.10149 16.0268 8.58638 17.2915L7.22633 20.8729C5.91753 21.5279 5.0204 22.8697 5.0204 24.4186C5.0204 24.9466 5.12468 25.4506 5.314 25.9115L2.91882 32.2224C2.90889 32.2486 2.88383 32.2659 2.85585 32.2659L0.0678745 32.2666C0.0306679 32.2667 0.000498102 32.2365 0.000488281 32.1993L0.00487174 32.1754L5.99341 16.3961C7.02016 13.6907 10.072 12.32 12.81 13.3345ZM28.9955 16.7371L29.3163 16.7337L29.7093 16.7473L30.0186 16.772L30.3615 16.8139L30.6021 16.8528L30.9501 16.9228L31.1962 16.9826L31.3465 17.0234L31.625 17.1078L31.8607 17.1883L31.9699 17.2285L32.2629 17.346L32.4752 17.44L32.7069 17.5515L32.9535 17.681L33.0724 17.7476L33.3046 17.8858L33.5249 18.0274L33.6195 18.0915L33.8746 18.2749L34.0785 18.4332L34.2633 18.5865L34.3812 18.6895L34.5683 18.8619L34.6805 18.971L34.7979 19.0898L34.9195 19.2187L35.0383 19.3505L35.1419 19.4705L35.3292 19.7009L35.5691 20.0249L35.6572 20.1534L35.8028 20.3788L35.8973 20.5351L36.058 20.8218L36.1728 21.0463L36.2982 21.3148L36.3974 21.5486L36.4885 21.7852L36.5644 22.0026L36.6282 22.2039L36.6794 22.3813L36.7128 22.5071C36.7374 22.6028 36.7602 22.6992 36.7812 22.7962L36.8153 22.9637L36.846 23.1333L36.8729 23.3043C36.8878 23.4057 36.9006 23.5078 36.9114 23.6104L36.926 23.7649C36.9373 23.8983 36.9452 24.0328 36.9496 24.1681L36.9537 24.3232V35.8054C36.9537 35.9129 36.8662 36 36.7584 36H34.4151C34.315 36 34.2324 35.9249 34.2212 35.8281L34.2199 35.8054L34.2201 30.2913L33.976 30.4888L33.7764 30.6386L33.6197 30.7494L33.4835 30.8411L33.3091 30.9525L33.0969 31.0794L32.8071 31.2383L32.6791 31.3034L32.4479 31.4136L32.1391 31.5464L31.8764 31.6471L31.7372 31.6961L31.4028 31.8015L31.2804 31.836L30.9953 31.9079L30.7166 31.9671L30.4646 32.0115L30.3243 32.0324L30.0586 32.065L29.9326 32.0772L29.7343 32.0922L29.493 32.1037L29.2404 32.1077C24.9804 32.1077 21.5271 28.6661 21.5271 24.4205C21.5271 20.2567 24.8489 16.866 28.9955 16.7371ZM24.2609 24.4205C24.2609 21.6798 26.4903 19.4579 29.2404 19.4579C29.4034 19.4579 29.5647 19.4657 29.7238 19.481L29.8413 19.4937L30.0803 19.5283L30.2016 19.5504L30.3419 19.5798L30.5659 19.6358L30.7996 19.7062L31.0449 19.7939C31.1507 19.835 31.2549 19.8796 31.3571 19.9275L31.4292 19.962L31.6766 20.0916L31.8714 20.2066C31.943 20.2511 32.0134 20.2973 32.0825 20.3453L32.1983 20.428L32.3169 20.5182C32.4843 20.6495 32.6431 20.7912 32.7923 20.9425L32.9514 21.1115C33.6874 21.9308 34.1543 22.9953 34.2135 24.1669L34.2162 24.23L34.2194 24.49C34.1851 26.9823 32.3073 29.0307 29.8835 29.3422L29.7304 29.3595L29.5286 29.375L29.2404 29.3832C26.4903 29.3832 24.2609 27.1613 24.2609 24.4205ZM9.16556 21.9333C10.6351 21.9333 11.8265 23.1123 11.8265 24.5667C11.8265 26.021 10.6351 27.2 9.16556 27.2C7.69598 27.2 6.50464 26.021 6.50464 24.5667C6.50464 23.1123 7.69598 21.9333 9.16556 21.9333ZM50.446 17.7037L50.314 17.6319L49.9725 17.4615L49.7024 17.3412L49.359 17.2057C49.1858 17.1421 49.0099 17.0846 48.8317 17.0334L48.7024 16.9975C48.4418 16.9276 48.1758 16.871 47.9051 16.8283L47.827 16.8164L47.461 16.7714L47.2656 16.7545C47.0749 16.7405 46.8823 16.7333 46.6879 16.7333C42.428 16.7333 38.9746 20.1671 38.9746 24.4029C38.9746 28.6387 42.428 32.0725 46.6879 32.0725L46.9328 32.0687L47.2991 32.0488L47.688 32.0086L47.9931 31.9632L48.302 31.9043L48.6057 31.8336L48.8922 31.7548L49.246 31.6407L49.5034 31.5455L49.7928 31.4258L50.098 31.2842L50.3431 31.1584L50.5963 31.0164L50.9053 30.8256L51.1908 30.6306C51.3442 30.5208 51.4935 30.4054 51.6381 30.2849L51.6676 30.2602L51.6687 32.0952C51.68 32.1917 51.7625 32.2667 51.8627 32.2667H54.206C54.3138 32.2667 54.4012 32.1797 54.4012 32.0725V24.3058L54.3861 23.9176L54.3631 23.6355L54.3242 23.3145L54.2804 23.043L54.216 22.7247L54.1623 22.5014L54.0624 22.1478L54.0059 21.9725L53.916 21.7196L53.7452 21.3029L53.6184 21.0324L53.4359 20.6849L53.2837 20.4245L53.198 20.2876L53.0512 20.067L52.9398 19.9099L52.732 19.6375L52.6151 19.4946L52.387 19.2347L52.2203 19.0586L52.0141 18.8554L51.8835 18.7342L51.7203 18.5904L51.3495 18.2919L51.1038 18.1138L50.8016 17.9139L50.446 17.7037ZM46.6879 19.4517C43.9379 19.4517 41.7085 21.6684 41.7085 24.4029C41.7085 27.1374 43.9379 29.3542 46.6879 29.3542L46.9905 29.3452L47.1625 29.3321L47.4466 29.2973L47.4952 29.2894C47.636 29.2666 47.7747 29.2379 47.9112 29.2037L48.1609 29.1347L48.4198 29.0465L48.5215 29.0086L48.659 28.9511L48.9045 28.8378L49.1359 28.7163L49.321 28.6061L49.4895 28.4973L49.6838 28.3581C50.8786 27.4619 51.6545 26.0429 51.6673 24.443L51.6593 24.1177C51.6192 23.4156 51.4319 22.7526 51.1277 22.1587L50.9903 21.9086L50.8359 21.6623L50.7712 21.5684L50.6486 21.4015L50.5368 21.2613L50.4034 21.1064L50.3055 21.0005L50.1647 20.8584L49.9506 20.6625L49.7324 20.4847L49.5599 20.3578L49.3776 20.2355L49.1353 20.09L49.0187 20.0266L48.7742 19.9059L48.5808 19.8219L48.3539 19.7355L48.1642 19.6729L47.9782 19.6195L47.7697 19.5688L47.5588 19.5271L47.3448 19.4944L47.2201 19.4796C47.0452 19.4611 46.8677 19.4517 46.6879 19.4517ZM77.5285 18.7765L77.4276 18.6851L77.1961 18.4872L77.0529 18.3724L76.8158 18.1941L76.5712 18.0244L76.2693 17.8334L75.9998 17.6789L75.8471 17.5975L75.6556 17.5016L75.4021 17.3846L75.1892 17.2949L75.0162 17.2274L74.6714 17.1069L74.3928 17.0227L74.2425 16.9821L73.9964 16.9224L73.6484 16.8525L73.4078 16.8138L73.2722 16.7954L73.065 16.7719L72.8285 16.752L72.5529 16.7378L72.3626 16.7337L72.0418 16.7371C67.8952 16.8657 64.5734 20.2486 64.5734 24.4029C64.5734 28.6387 68.0267 32.0725 72.2867 32.0725L72.5393 32.0685L72.7806 32.057L72.9789 32.042L73.2162 32.0174L73.3707 31.9974L73.5109 31.9764L73.7629 31.9322L73.9251 31.8991L74.0416 31.8731L74.2035 31.8338L74.4491 31.767L74.6706 31.6992L74.9227 31.6129L75.1854 31.5125L75.3956 31.424L75.7254 31.27L75.8535 31.205L76.1432 31.0465L76.4364 30.8691L76.6661 30.7173L76.8228 30.6067L77.0224 30.4572L77.2664 30.2602L77.2675 32.0952C77.2788 32.1917 77.3613 32.2667 77.4614 32.2667H79.8047C79.9126 32.2667 80 32.1797 80 32.0725V24.3058L79.9959 24.151C79.9915 24.016 79.9836 23.8819 79.9723 23.7488L79.9577 23.5947L79.9193 23.2892C79.9026 23.1751 79.8834 23.0618 79.8617 22.9494L79.8275 22.7823L79.7591 22.4939L79.7257 22.3684L79.639 22.0773L79.5802 21.9009L79.4872 21.6474L79.4437 21.5376L79.3446 21.3043L79.2192 21.0364L79.1043 20.8124L79.0191 20.6572L78.8491 20.3705L78.7893 20.276L78.6154 20.0174L78.4702 19.8176L78.297 19.5956L78.1882 19.4642L78.0846 19.3445L77.8442 19.0844L77.7268 18.9658L77.5285 18.7765ZM72.2867 19.4517C69.5366 19.4517 67.3072 21.6684 67.3072 24.4029C67.3072 27.1374 69.5366 29.3542 72.2867 29.3542L72.5749 29.3461L72.7767 29.3306L72.9298 29.3133C75.3536 29.0025 77.2314 26.9588 77.2657 24.4722L77.2652 24.311L77.2598 24.1499C77.2006 22.981 76.7337 21.9189 75.9977 21.1015L75.9101 21.0067L75.8386 20.9328C75.6894 20.7819 75.5306 20.6405 75.3632 20.5095L75.2446 20.4195L75.1289 20.337C75.0597 20.2892 74.9893 20.243 74.9177 20.1986L74.7229 20.0839L74.4755 19.9546L74.4034 19.9202C74.3012 19.8723 74.1971 19.8279 74.0912 19.7869L73.957 19.7371L73.6875 19.6504L73.5216 19.6051L73.2479 19.5439L73.1266 19.5219L73.0043 19.5027L72.7701 19.4747C72.611 19.4595 72.4498 19.4517 72.2867 19.4517ZM64.3039 19.7017V17L64.1747 17.001C59.9185 17.0686 56.4896 20.4698 56.4896 24.6556V32.1993C56.4896 32.2365 56.5197 32.2667 56.5569 32.2667H59.1799C59.2171 32.2667 59.2472 32.2365 59.2472 32.1993L59.2479 24.5737C59.2926 21.8755 61.5391 19.7017 64.3039 19.7017Z" fill="white"/>
</svg>
